<svg xmlns="http://www.w3.org/2000/svg" viewBox="0 0 96 96" style="background:#000;">
  <path fill="#fff" d="M48.1,18.2C8.8,18.9,8.8,77.3,48.1,78C87.3,77.3,87.4,18.9,48.1,18.2z M31.2,33.1c1.9-10.9,19-7.6,16.8,3.2 
  C46,47.3,28.9,44,31.2,33.1z M43.6,59c-2,10.9-19.1,7.6-16.8-3.2C28.8,44.8,45.8,48.1,43.6,59z M48.6,44.6c4.8,0.9,3.4,8.5-1.4,7.4 
  C42.4,51.2,43.8,43.6,48.6,44.6z M65,63.1c-1.9,10.9-19,7.6-16.8-3.2C50.2,48.9,67.3,52.2,65,63.1z M59.4,47.3L59.4,47.3 
  c-10.9-1.9-7.6-19,3.2-16.8C73.5,32.5,70.2,49.5,59.4,47.3z"/>
</svg>
