<svg xmlns="http://www.w3.org/2000/svg" width="54" height="45" viewBox="0 0 54 45" fill="none"><path d="M34.7306 41.3811C34.7401 40.5217 34.7923 39.6196 35.9224 40.0327C35.9746 40.3698 36.0743 41.044 36.1265 41.3764C36.9764 41.4239 37.9023 41.4903 37.5225 42.6204C37.1711 42.6679 36.4684 42.7581 36.117 42.8055C36.1265 43.7124 36.0601 44.6193 34.8873 44.2062C34.8493 43.8501 34.7781 43.1332 34.7401 42.7771C33.8949 42.7581 32.9358 42.7581 33.3679 41.6185C33.7097 41.5615 34.3887 41.4428 34.7306 41.3811Z" fill="#F1C562"></path><ellipse cx="33" cy="20.5" rx="21" ry="20.5" fill="#F9EFDD" fill-opacity="0.03"></ellipse><path d="M3.47852 7.18051C4.52785 6.51102 4.6703 7.86898 4.75576 8.56221C5.5297 8.60494 6.50781 8.5622 6.033 9.63528C5.70538 9.72074 5.05965 9.88218 4.73203 9.96764C4.63707 10.7796 4.57058 11.7197 3.47852 11.3493C3.44054 11.0075 3.35982 10.3332 3.31709 9.99613C2.99896 9.91541 2.36272 9.75398 2.0446 9.67326C1.19943 8.67141 2.63336 8.53846 3.31709 8.56221C3.35507 8.22034 3.43579 7.52712 3.47852 7.18051Z" fill="#F1C562"></path><path d="M39.0609 11.1215C39.1654 10.4045 39.0277 9.35516 40.1007 9.64005C40.3524 10.0959 40.5708 10.5707 40.756 11.0645C41.0646 11.1262 41.6866 11.2449 42 11.3019C41.9905 11.5868 41.9668 12.1565 41.9573 12.4414C41.6154 12.4937 40.9317 12.5886 40.5851 12.6361C40.5423 12.9732 40.4569 13.6427 40.4141 13.9798C40.1292 13.9941 39.55 14.032 39.2651 14.051C39.2223 13.7139 39.1369 13.0444 39.0942 12.7121C38.154 12.6788 37.5842 12.1993 37.5463 11.2402C37.9214 11.2117 38.6811 11.1547 39.0609 11.1215Z" fill="#F1C562"></path><path d="M36.1075 14.5543C37.9166 15.1431 40.2954 15.5419 41.1405 17.4792C41.6391 19.2597 39.5832 20.1144 38.2774 20.7031C37.3373 20.9215 36.2785 21.7477 35.3478 21.2634C35.3193 21.0402 35.2624 20.5939 35.2339 20.3708C36.948 19.7393 38.9754 19.4591 40.1529 17.9017C38.9516 16.8429 37.4702 16.2257 35.9366 15.8411C35.9793 15.5182 36.0648 14.8724 36.1075 14.5543Z" fill="#F1C562"></path><path d="M7.6854 13.4101C9.8078 10.9743 13.4116 10.6467 16.3839 11.3969C18.2594 11.7483 20.1207 13.0303 22.0627 12.2373C24.6789 11.2592 27.5942 10.5755 30.3434 11.4159C32.3898 11.962 34.0801 13.6001 34.7306 15.6132C35.3004 17.1374 35.0582 18.785 35.2339 20.3708C35.2624 20.594 35.3194 21.0403 35.3479 21.2635C34.4505 23.5378 33.9187 25.9356 32.9738 28.1957C34.7496 27.8681 36.5017 27.1891 37.7884 25.8739C37.1094 25.1285 36.3022 24.5112 35.4476 23.9794C35.571 23.7088 35.8132 23.158 35.9319 22.8873C37.2424 23.5568 39.2318 24.5065 38.7713 26.3155C37.5557 28.7465 34.4932 28.9602 32.2379 29.8766C31.0129 31.5337 30.5048 33.5896 30.0727 35.5743C32.0669 35.1517 34.1134 34.525 35.5331 32.9676C35.044 32.0892 34.2985 31.4244 33.4534 30.8974C33.7573 30.5555 34.0754 30.2327 34.4172 29.924C35.4001 30.679 36.8863 31.5621 36.5587 33.0246C36.6109 33.884 35.9176 34.4347 35.3194 34.9143C33.667 36.0633 31.6681 36.4954 29.7641 37.0225C29.4175 38.4564 29.1943 39.9568 28.4631 41.2625C27.7082 42.6252 25.7804 42.6727 24.5412 42.0175C23.4064 40.9302 23.1025 39.2968 22.5422 37.8819C21.265 37.8012 19.9877 37.7299 18.7105 37.6635C18.1455 39.2256 17.8226 41.0916 16.3697 42.1124C15.2017 42.6965 13.5968 42.5018 12.8324 41.3717C11.8922 40.009 11.8068 38.2855 11.3699 36.7328C9.40896 36.2485 7.25808 35.6693 5.95709 34.0074C5.10243 32.9391 5.75767 31.4957 6.54585 30.603C8.03201 30.6647 7.03967 32.3028 6.75003 33.072C7.9608 34.2828 9.54667 34.9618 11.1705 35.4366C10.672 33.4044 9.92651 31.4482 8.98164 29.5917C7.00167 28.9317 4.61813 28.4284 3.4406 26.5244C2.93256 25.2899 3.92016 24.2026 4.85079 23.5141C4.99323 23.78 5.28286 24.3213 5.43005 24.5872C5.09293 25.0287 4.76532 25.4751 4.44245 25.9214C5.40631 26.9802 6.71679 27.5737 8.0795 27.9488C7.37203 25.9356 6.70254 23.9177 6.21823 21.8428C4.43295 20.8836 2.12062 20.8979 0.653452 19.3595C-0.0350236 18.8182 -0.177459 17.7926 0.216634 17.0377C1.39416 15.5848 3.28391 15.072 5.00747 14.5829C5.08344 14.9058 5.23064 15.5515 5.30661 15.8791C3.9439 16.2637 2.48148 16.6056 1.41315 17.5885C0.938341 18.3624 1.87372 18.6805 2.38177 19.0414C3.50232 19.7109 4.7938 19.9958 6.0568 20.2806C6.01882 17.9208 6.00932 15.2809 7.6854 13.4101ZM9.05285 13.828C7.30555 15.5373 6.89247 18.2674 7.48599 20.5655C8.90567 21.0593 10.4203 21.0926 11.897 21.3157C19.1663 22.0137 26.5306 21.8855 33.743 20.7032C34.1181 18.2722 33.9994 15.4138 31.9815 13.7045C29.2608 11.4681 25.4243 12.3181 22.4188 13.4481C20.1349 14.4072 17.9366 12.9448 15.7382 12.5032C13.4686 12.0807 10.8476 12.2041 9.05285 13.828ZM6.96369 21.4297C8.4451 23.5521 8.32165 26.5007 10.0642 28.4711C17.0202 29.9003 24.3085 29.9525 31.2835 28.6041C31.6301 27.8776 31.9957 27.1559 32.3756 26.4437C32.8551 24.9718 33.2825 23.4856 33.6148 21.971C25.562 23.2197 17.3241 23.3099 9.25228 22.2084C8.44035 22.0992 7.59519 22.0042 6.96369 21.4297ZM10.6482 29.9525C11.4602 31.79 12.1344 33.6988 12.443 35.693C14.1571 36.0301 15.8854 36.2913 17.6327 36.3577C18.2452 34.6247 18.4399 31.301 21.0181 31.7283C22.9221 32.3503 22.998 34.7434 23.5821 36.3577C25.2581 36.353 26.9295 36.2058 28.5818 35.9304C29.0614 33.9742 29.6929 32.0654 30.3671 30.1709C23.8195 31.0351 17.1674 31.0588 10.6482 29.9525ZM18.9147 36.5049C20.0305 36.5334 21.151 36.5429 22.2716 36.5382C21.9202 35.2419 21.7208 33.7795 20.6667 32.8299C19.3658 33.5326 19.418 35.2799 18.9147 36.5049ZM12.7469 37.0984C12.989 38.1335 13.1505 39.2018 13.5873 40.1847C13.9292 40.9539 14.9548 41.4857 15.7287 40.9776C16.759 40.161 16.9395 38.7793 17.3573 37.6112C15.8142 37.4878 14.2805 37.3073 12.7469 37.0984ZM23.8812 37.7014C24.356 38.9597 24.5602 41.2293 26.355 41.1343C27.9978 40.8115 27.9741 38.6701 28.3682 37.3786C26.8678 37.4355 25.3721 37.5353 23.8812 37.7014Z" fill="#F1C562"></path><path d="M15.6812 16.6245C15.9518 16.615 16.4836 16.596 16.7543 16.5865C16.8207 17.0993 16.892 17.6121 16.9632 18.1249C17.362 18.1487 18.1597 18.2009 18.5586 18.2246C18.6298 19.2312 17.9271 19.4924 17.0724 19.5351C16.9537 20.2948 16.6546 20.9406 15.8379 21.121C15.6859 20.5845 15.5435 20.0527 15.4058 19.5161C14.5701 19.4402 13.7867 19.255 13.8294 18.2389C14.233 18.2057 15.0497 18.1344 15.458 18.0964C15.534 17.6074 15.6052 17.1136 15.6812 16.6245Z" fill="#F1C562"></path><path d="M1.83103 35.5363C2.11117 35.5552 2.6667 35.5885 2.94684 35.6075C3.0418 36.068 3.14151 36.5286 3.24122 36.9892C4.10062 37.0509 4.84608 37.2883 4.72738 38.3186C4.33328 38.3424 3.54984 38.3851 3.16049 38.4089C3.1415 38.7792 3.10827 39.5104 3.09403 39.8808C2.74741 39.8713 2.05418 39.8523 1.70757 39.8428C1.69333 39.4914 1.66484 38.784 1.6506 38.4326C1.28024 38.4136 0.539542 38.3756 0.169189 38.3566C0.207174 38.0385 0.28789 37.4118 0.330623 37.0936C0.667739 37.0794 1.35146 37.0462 1.69333 37.0272C1.72656 36.6568 1.79304 35.9066 1.83103 35.5363Z" fill="#F1C562"></path></svg>