<svg xmlns="http://www.w3.org/2000/svg" width="20" height="20" viewBox="0 0 20 20" fill="none"><path d="M17 2.5434H15V1.61276C15 1.36594 14.8946 1.12923 14.7071 0.954706C14.5196 0.780178 14.2652 0.682129 14 0.682129C13.7348 0.682129 13.4804 0.780178 13.2929 0.954706C13.1054 1.12923 13 1.36594 13 1.61276V2.5434H7V1.61276C7 1.36594 6.89464 1.12923 6.70711 0.954706C6.51957 0.780178 6.26522 0.682129 6 0.682129C5.73478 0.682129 5.48043 0.780178 5.29289 0.954706C5.10536 1.12923 5 1.36594 5 1.61276V2.5434H3C2.20435 2.5434 1.44129 2.83755 0.87868 3.36113C0.316071 3.88472 0 4.59485 0 5.33531V16.5029C0 17.2434 0.316071 17.9535 0.87868 18.4771C1.44129 19.0007 2.20435 19.2948 3 19.2948H17C17.7956 19.2948 18.5587 19.0007 19.1213 18.4771C19.6839 17.9535 20 17.2434 20 16.5029V5.33531C20 4.59485 19.6839 3.88472 19.1213 3.36113C18.5587 2.83755 17.7956 2.5434 17 2.5434ZM18 16.5029C18 16.7498 17.8946 16.9865 17.7071 17.161C17.5196 17.3355 17.2652 17.4336 17 17.4336H3C2.73478 17.4336 2.48043 17.3355 2.29289 17.161C2.10536 16.9865 2 16.7498 2 16.5029V9.98849H18V16.5029ZM18 8.12722H2V5.33531C2 5.08849 2.10536 4.85178 2.29289 4.67725C2.48043 4.50272 2.73478 4.40467 3 4.40467H5V5.33531C5 5.58213 5.10536 5.81884 5.29289 5.99337C5.48043 6.1679 5.73478 6.26594 6 6.26594C6.26522 6.26594 6.51957 6.1679 6.70711 5.99337C6.89464 5.81884 7 5.58213 7 5.33531V4.40467H13V5.33531C13 5.58213 13.1054 5.81884 13.2929 5.99337C13.4804 6.1679 13.7348 6.26594 14 6.26594C14.2652 6.26594 14.5196 6.1679 14.7071 5.99337C14.8946 5.81884 15 5.58213 15 5.33531V4.40467H17C17.2652 4.40467 17.5196 4.50272 17.7071 4.67725C17.8946 4.85178 18 5.08849 18 5.33531V8.12722Z" fill="#F1C562"></path></svg>