<svg xmlns="http://www.w3.org/2000/svg" width="49" height="44" viewBox="0 0 49 44" fill="none">
  <ellipse cx="28" cy="20.5" rx="21" ry="20.5" fill="#F9EFDD" fill-opacity="0.03"></ellipse>
  <path d="M4.84228 12.6313C7.51018 11.9059 10.3091 12.4863 12.8507 13.4083C15.1582 14.2555 17.3159 12.6267 19.5859 12.4441C22.427 11.9714 25.811 12.5939 27.51 15.1448C29.401 18.1403 28.8159 21.9549 27.9734 25.2032C26.9905 29.1395 24.3647 32.4533 23.6533 36.4739C23.218 38.3133 23.0916 40.2932 22.1649 41.9735C21.3318 43.4385 19.0711 43.7802 17.9618 42.4556C15.9632 40.0405 16.3798 36.5816 14.765 33.9745C13.9693 33.5299 13.7025 34.5081 13.4076 35.0463C12.4856 37.4475 12.3966 40.1809 10.8989 42.348C9.78959 43.7943 7.12638 43.5087 6.45707 41.7769C5.07632 38.6691 5.24949 35.0698 3.60195 32.0461C1.40679 27.8337 -0.460746 23.1672 0.100916 18.3182C0.283456 15.6784 2.23055 13.2211 4.84228 12.6313ZM1.32254 18.3369C0.78896 22.8349 2.52075 27.2018 4.58486 31.1054C6.19028 34.1149 6.33069 37.6019 7.3838 40.794C7.59443 41.7255 8.98922 42.5726 9.69598 41.674C11.7273 39.301 11.1282 35.711 12.9911 33.2444C13.4966 32.561 14.4186 32.7014 15.1582 32.5516C17.4797 34.92 17.035 38.5801 18.6639 41.3136C19.0757 42.0718 20.2084 42.3246 20.7935 41.5991C21.9543 40.1902 21.9168 38.2244 22.3615 36.5301C23.1572 31.5594 26.6769 27.5248 27.3041 22.5026C24.7205 21.7537 21.6032 21.3043 20.0025 18.8752C18.6451 17.3914 17.0116 16.1324 15.2939 15.098C12.1392 14.9482 9.24666 12.9824 6.03114 13.6517C3.63003 13.8904 1.61273 15.9592 1.32254 18.3369ZM16.8291 14.4801C18.3222 15.655 19.9416 16.7174 21.1586 18.2105C22.5768 20.2278 25.1838 20.6631 27.4305 21.1593C27.6505 19.0062 27.4071 16.5864 25.7314 15.0325C23.3069 12.8467 19.6187 13.3334 16.8291 14.4801Z" fill="#F1C562"></path>
  <path d="M17.3814 0.621128C19.2583 -0.343059 22.2444 -0.361783 23.2554 1.84742C25.6191 1.55255 27.9734 1.15002 30.3558 0.995564C33.37 0.930036 36.389 1.04237 39.4032 0.9394C39.4173 1.26704 39.4407 1.92699 39.4547 2.25462C34.25 2.16569 29.0218 2.02997 23.892 3.05032C22.9793 2.98011 23.2648 4.0145 23.2367 4.5668C25.9327 4.83359 28.5959 5.50758 31.3247 5.44206C34.0019 5.41397 36.6838 5.49355 39.3658 5.37654C39.3986 5.70885 39.4594 6.3688 39.4875 6.69643C36.7587 6.71515 34.03 6.7058 31.3059 6.71516C28.6661 6.71048 26.0872 6.06925 23.4707 5.85394C22.2445 6.16286 21.2194 7.05215 20.082 7.60445C20.6484 7.87592 21.2241 8.13804 21.8045 8.38611C21.8185 8.64354 21.8419 9.16307 21.8513 9.4205C20.5126 9.51411 19.1693 9.51879 17.8354 9.37838C17.8448 9.13031 17.8588 8.62949 17.8635 8.38142C18.4251 8.16612 18.9634 7.90869 19.4783 7.60914C18.4392 6.80409 16.6793 6.57007 16.4874 5.01146C16.4359 3.55582 16.0334 1.62276 17.3814 0.621128ZM17.8822 5.5263C19.1225 5.70416 20.5033 6.03181 21.6734 5.40462C22.2445 4.54808 22.09 3.46688 22.0057 2.50738C21.7858 1.00493 19.848 1.2764 18.7387 1.37937C16.9648 1.85678 17.6716 4.19704 17.8822 5.5263Z" fill="#F1C562"></path>
</svg>
