<svg xmlns="http://www.w3.org/2000/svg" width="22" height="22" viewBox="0 0 22 22" fill="none"><path d="M13.3563 21.5895C13.0313 21.6617 12.7471 21.5938 12.5037 21.3858C12.2596 21.1785 12.1375 20.8943 12.1375 20.5332C12.1375 20.2805 12.2235 20.0504 12.3954 19.8432C12.5665 19.6352 12.7785 19.495 13.0313 19.4228C13.4827 19.3145 13.9207 19.1744 14.3454 19.0025C14.7693 18.8313 15.1799 18.6193 15.5771 18.3666C15.8118 18.2221 16.0693 18.1636 16.3495 18.1911C16.629 18.2178 16.8591 18.3214 17.0396 18.502C17.2924 18.7548 17.4054 19.0437 17.3787 19.3687C17.3512 19.6937 17.1931 19.9464 16.9042 20.127C16.3445 20.4881 15.7714 20.786 15.1849 21.0207C14.5978 21.2555 13.9882 21.445 13.3563 21.5895ZM18.5834 16.9582C18.4028 16.7777 18.2988 16.552 18.2714 16.2812C18.2446 16.0103 18.3035 15.7666 18.4479 15.5499C18.6827 15.1527 18.8903 14.7464 19.0709 14.3312C19.2514 13.9159 19.3959 13.4735 19.5042 13.0041C19.5764 12.7513 19.7209 12.5346 19.9375 12.3541C20.1542 12.1735 20.3889 12.0832 20.6417 12.0832C21.0028 12.0832 21.2874 12.2096 21.4954 12.4624C21.7026 12.7152 21.7611 13.0041 21.6709 13.3291C21.5264 13.9791 21.3321 14.5977 21.088 15.1848C20.8446 15.7713 20.5424 16.3263 20.1813 16.8499C20.0007 17.1207 19.7526 17.2695 19.437 17.2962C19.1207 17.3237 18.8361 17.211 18.5834 16.9582ZM20.6146 9.91657C20.3618 9.91657 20.1318 9.82629 19.9245 9.64573C19.7165 9.46518 19.5764 9.24851 19.5042 8.99573C19.3959 8.52629 19.2514 8.07923 19.0709 7.65457C18.8903 7.23062 18.6827 6.82907 18.4479 6.4499C18.3035 6.23323 18.2446 5.98948 18.2714 5.71865C18.2988 5.44782 18.4028 5.22212 18.5834 5.04157C18.8361 4.78879 19.1207 4.67143 19.437 4.68948C19.7526 4.70754 20.0007 4.85198 20.1813 5.12282C20.5424 5.64643 20.8493 6.21048 21.1021 6.81498C21.3549 7.42021 21.5535 8.03879 21.6979 8.67073C21.7702 8.99574 21.6979 9.28462 21.4813 9.5374C21.2646 9.79018 20.9757 9.91657 20.6146 9.91657ZM8.77919 21.5624C6.30558 20.9846 4.26964 19.7207 2.67136 17.7707C1.0738 15.8207 0.275024 13.5638 0.275024 10.9999C0.275024 8.41796 1.06947 6.14296 2.65836 4.1749C4.24725 2.20685 6.2785 0.951984 8.75211 0.410317C9.07711 0.338095 9.36166 0.405623 9.60578 0.612901C9.84916 0.820901 9.97086 1.09643 9.97086 1.43948C9.97086 1.69226 9.88491 1.92229 9.71303 2.12957C9.54186 2.33757 9.32989 2.47768 9.07711 2.5499C7.14516 3.01935 5.55627 4.03948 4.31044 5.61032C3.06461 7.18115 2.44169 8.97768 2.44169 10.9999C2.44169 13.0221 3.06461 14.8053 4.31044 16.3494C5.55627 17.8928 7.14516 18.9173 9.07711 19.4228C9.32989 19.495 9.54186 19.6395 9.71303 19.8562C9.88491 20.0728 9.97086 20.3075 9.97086 20.5603C9.97086 20.9034 9.8535 21.1742 9.61877 21.3728C9.38405 21.5714 9.10419 21.6346 8.77919 21.5624ZM15.6584 3.66032C15.2431 3.40754 14.8188 3.18618 14.3854 2.99623C13.9521 2.80701 13.5097 2.65823 13.0584 2.5499C12.8056 2.47768 12.5889 2.33757 12.4084 2.12957C12.2278 1.92229 12.1375 1.69226 12.1375 1.43948C12.1375 1.09643 12.2596 0.820901 12.5037 0.612901C12.7471 0.405623 13.0313 0.338095 13.3563 0.410317C13.9882 0.554762 14.6021 0.744345 15.1979 0.979067C15.7938 1.21379 16.3716 1.51171 16.9313 1.87282C17.2202 2.05337 17.3783 2.30615 17.4058 2.63115C17.4325 2.95615 17.3195 3.24504 17.0667 3.49782C16.8861 3.67837 16.6651 3.78671 16.4037 3.82282C16.1415 3.85893 15.8931 3.80476 15.6584 3.66032ZM11.0813 16.0374C10.9368 16.0374 10.8014 16.0147 10.675 15.9692C10.5486 15.9244 10.4313 15.8568 10.3229 15.7666C9.13127 14.6652 8.23752 13.636 7.64169 12.6791C7.04586 11.7221 6.74794 10.8374 6.74794 10.0249C6.74794 8.67073 7.18597 7.5921 8.06203 6.78898C8.93736 5.98515 9.94378 5.58323 11.0813 5.58323C12.2188 5.58323 13.2256 5.98515 14.1016 6.78898C14.9769 7.5921 15.4146 8.67073 15.4146 10.0249C15.4146 10.8374 15.1167 11.7221 14.5209 12.6791C13.925 13.636 13.0313 14.6652 11.8396 15.7666C11.7313 15.8568 11.6139 15.9244 11.4875 15.9692C11.3611 16.0147 11.2257 16.0374 11.0813 16.0374ZM11.0813 10.9999C11.4063 10.9999 11.6818 10.8872 11.9079 10.6619C12.1332 10.4358 12.2459 10.1603 12.2459 9.83532C12.2459 9.52837 12.1332 9.25754 11.9079 9.02282C11.6818 8.7881 11.4063 8.67073 11.0813 8.67073C10.7563 8.67073 10.4807 8.7881 10.2547 9.02282C10.0294 9.25754 9.91669 9.52837 9.91669 9.83532C9.91669 10.1603 10.0294 10.4358 10.2547 10.6619C10.4807 10.8872 10.7563 10.9999 11.0813 10.9999Z" fill="#F1C562"></path></svg>