<svg xmlns="http://www.w3.org/2000/svg" width="30" height="41" viewBox="0 0 30 41" fill="none">
  <path d="M0 5.57022C0.169282 5.4038 0.507839 5.07095 0.677121 4.90015C1.27993 5.59212 1.56482 6.50745 1.95706 7.33956C2.46903 7.28263 3.24112 6.62569 3.56316 7.36146C4.07927 8.30306 4.71098 9.22715 5 10.2782C4.73576 10.4928 4.46738 10.6987 4.19487 10.9001C3.76548 10.0724 3.34434 9.24029 2.94384 8.39504C2.46903 8.56584 1.99422 8.73664 1.5194 8.90744C0.999172 7.79941 0.417011 6.72204 0 5.57022Z" fill="#F1C562"/>
  <path d="M6.25218 12.3166C8.78383 11.4974 11.5042 12.0275 13.9261 12.9519C15.9269 13.8587 17.853 12.4393 19.8099 12.137C22.7145 11.4974 26.2685 12.0801 27.9533 14.783C29.6601 17.832 28.9757 21.5206 28.0411 24.7054C27.1372 27.8858 25.0663 30.6063 24.3643 33.8524C23.7368 35.9859 23.8334 38.4259 22.4206 40.2571C21.35 41.2165 19.3887 41.107 18.6077 39.8278C17.0106 37.4928 17.3836 34.3343 15.6987 32.0519C15.2117 32.1746 14.887 32.4681 14.7203 32.9325C13.7199 35.1448 13.7462 37.7469 12.4036 39.8103C11.4603 41.4355 8.68292 41.1858 8.02478 39.4423C7.21746 37.6593 7.15164 35.6617 6.61197 33.7999C5.84413 30.3829 3.61521 27.5222 2.76401 24.1272C2.11465 21.4899 1.5618 18.6162 2.50075 15.979C3.06237 14.2486 4.53223 12.873 6.25218 12.3166ZM7.14726 13.2717C5.48435 13.6177 4.08908 14.91 3.55379 16.509C2.7728 18.695 3.26421 21.0606 3.74246 23.2554C4.60243 26.8783 6.97175 29.9317 7.76152 33.5764C8.27487 35.5215 8.31875 37.6549 9.42004 39.3985C10.0036 39.819 10.925 39.911 11.355 39.232C12.8204 36.9715 12.6186 34.0627 14.0007 31.7716C14.6501 30.6895 16.3569 30.7027 16.9975 31.7891C18.4717 34.1547 18.0768 37.2957 19.8714 39.5036C20.4988 39.7139 21.4114 39.8103 21.7361 39.0743C22.7101 37.4447 22.7145 35.4689 23.2016 33.6728C23.9825 29.9185 26.4703 26.8082 27.2952 23.067C27.8305 20.5656 28.3263 17.6918 26.9091 15.3876C25.5138 13.2541 22.6619 12.7153 20.3101 13.2191C18.2304 13.5564 16.2165 14.9495 14.0665 14.2004C11.8596 13.4381 9.49463 12.6583 7.14726 13.2717Z" fill="#F1C562"/>
  <path d="M13.5367 0.209355C13.8263 0.155903 14.3964 0.0534522 14.686 0C14.6815 0.908687 14.6637 1.82183 14.6459 2.73498C15.1581 2.7617 15.6793 2.79733 16.196 2.83742C16.196 3.96437 16.2138 5.09132 16.2583 6.22272C15.9287 6.22272 15.2739 6.22272 14.9488 6.22272C14.9799 5.46994 15.0156 4.72606 15.0423 3.97773C14.6459 3.95546 13.8441 3.90646 13.4432 3.87973C13.4432 2.65479 13.4343 1.42985 13.5367 0.209355Z" fill="#F1C562"/>
  <path d="M28.8241 4.70825C29.1181 4.79288 29.706 4.96214 30 5.04677C29.2784 6.23163 28.9577 8.42317 27.0869 7.86192C26.5479 8.54344 25.7595 10.2806 24.9622 8.85525C25.3987 7.84411 26.0089 6.92651 26.5925 5.99555C27.0067 6.12918 27.421 6.27172 27.8352 6.41426C28.1515 5.8352 28.4588 5.25614 28.8241 4.70825Z" fill="#F1C562"/>
</svg>
