<svg xmlns="http://www.w3.org/2000/svg" width="55" height="46" viewBox="0 0 55 46" fill="none"><ellipse cx="34" cy="20.5" rx="21" ry="20.5" fill="#F9EFDD" fill-opacity="0.03"></ellipse><path d="M8.54035 11.4541C11.6688 9.21995 15.5567 10.2665 18.795 11.5842C20.2279 12.2133 21.6799 11.427 23.0603 11.0149C23.0937 11.3728 23.1558 12.0885 23.1892 12.4464C21.5748 12.9887 19.8363 13.569 18.1837 12.8423C15.4373 11.709 12.1799 10.76 9.4574 12.4681C7.79048 13.3792 7.05493 15.4344 6.61073 17.3432C6.30983 17.2347 5.70801 17.0232 5.4071 16.9148C5.91339 14.7945 6.75402 12.5495 8.54035 11.4541Z" fill="#F1C562"></path><path d="M33.1191 3.53156C35.6362 1.88306 39.2088 4.29616 38.9844 7.64739C38.7885 10.6245 41.6639 12.6742 40.8567 15.7326C40.3981 19.5502 35.9275 21.6054 33.2862 19.1272C31.3423 17.007 28.2425 18.3247 26.3463 16.1556C23.7432 13.7371 23.8722 8.67228 26.5326 6.37305C28.5052 4.75166 31.2181 5.36444 33.1191 3.53156ZM34.0887 4.6649C32.7513 5.44577 31.4665 6.44355 29.9094 6.51405C27.6789 6.60081 25.606 8.82954 25.7684 11.4379C25.6299 13.3033 26.8287 14.8596 28.147 15.776C29.2646 16.3129 30.5255 16.1719 31.6862 16.5298C33.0618 16.828 33.9979 18.1729 35.2923 18.688C37.5801 19.3225 40.016 16.8172 39.6913 14.1763C39.462 12.6634 38.3634 11.5789 38.0052 10.1201C37.7521 8.84039 37.7807 7.50639 37.4655 6.24832C36.7825 4.90349 35.426 4.08467 34.0887 4.6649Z" fill="#F1C562"></path><path d="M2.52222 18.726C4.04586 17.8692 5.91816 18.2055 7.18866 19.4581C8.1057 20.38 9.32365 20.6348 10.384 21.253C11.7213 22.2562 12.3805 24.2463 12.1226 26.0141C12.0318 27.847 10.2837 28.8122 10.1786 30.6397C9.93024 33.812 7.10745 36.1817 4.36109 35.569C1.57174 35.2761 -0.510723 31.9195 0.110195 28.8394C0.325128 27.4945 1.1562 26.166 0.477971 24.8211C-0.329222 22.5978 0.473194 19.637 2.52222 18.726ZM3.49181 19.816C1.63383 20.4721 0.926941 23.0425 1.87265 24.8916C2.86134 26.9197 0.707229 28.7852 1.33292 30.862C1.85354 32.6787 3.38673 34.3651 5.17306 34.1591C7.25552 34.338 8.91767 32.1472 9.00842 29.9022C9.12783 27.847 11.4539 26.7354 10.8234 24.4904C10.6085 21.9254 7.79524 22.2562 6.51042 20.7867C5.71755 19.9082 4.5808 19.3822 3.49181 19.816Z" fill="#F1C562"></path><path d="M33.3865 21.3561C33.7018 21.3886 34.3275 21.4428 34.6427 21.47C34.146 25.1845 32.9805 28.731 31.4378 32.0497C30.0813 34.8803 29.4795 38.0526 28.9971 41.2032C28.6867 42.8896 28.3284 44.9286 26.8335 45.7799C25.8066 46.1487 24.5122 46.1324 23.7671 45.1184C21.4936 42.2172 22.3103 37.6947 19.9843 34.8261C18.0117 37.7923 18.4176 41.919 16.531 44.934C15.7095 46.2571 14.0235 46.1595 12.8437 45.5956C11.7165 44.5978 11.4777 42.8788 11.1481 41.3984C10.7613 39.0178 10.1021 36.686 9.93018 34.2675C10.2024 34.3706 10.7469 34.5766 11.0192 34.6797C12.1177 37.5266 11.9649 40.7965 13.1351 43.6054C13.6127 44.934 15.2557 44.7063 15.7477 43.5133C17.1519 40.7802 16.9704 37.3422 18.4606 34.658C19.0863 33.3945 20.9204 33.3674 21.613 34.5604C23.1653 37.3639 22.9217 40.9646 24.4788 43.7627C25.0758 44.9394 26.7809 44.6574 27.0771 43.3506C28.2281 39.7607 28.2902 35.7859 29.8616 32.3425C31.4712 28.8828 32.7943 25.2279 33.3865 21.3561Z" fill="#F1C562"></path><path d="M34.0408 35.596C36.4338 34.3705 39.4906 36.6101 39.3378 39.6251C39.5288 42.6781 36.4433 44.9448 34.0408 43.6704C30.9219 42.5262 30.9363 36.7673 34.0408 35.596ZM34.0647 37.1794C32.5172 38.3778 32.6223 41.3929 34.4039 42.2497C36.0899 43.421 38.4732 41.3332 38.0291 39.1913C37.7998 37.1469 35.574 36.084 34.0647 37.1794Z" fill="#F1C562"></path></svg>