<svg xmlns="http://www.w3.org/2000/svg" width="56" height="42" viewBox="0 0 56 42" fill="none"><ellipse cx="35" cy="20.5" rx="21" ry="20.5" fill="#F9EFDD" fill-opacity="0.03"></ellipse><path d="M17.5723 0.0420405C18.8019 0.0105108 20.0316 0 21.2613 0C21.3926 0.672633 21.5345 1.35052 21.6817 2.02841C22.3648 1.7499 22.9744 1.16134 23.7469 1.16134C24.5614 1.88126 25.2918 2.69053 26.08 3.45249C25.749 4.11987 25.4022 4.78199 25.0764 5.45462C25.7543 5.59651 26.4374 5.73839 27.131 5.88027C27.131 7.10467 27.1258 8.32908 27.089 9.55348C26.4216 9.70062 25.7542 9.85301 25.0974 10.0159C25.4284 10.5729 25.749 11.1457 26.0538 11.7238C25.523 12.78 24.5088 13.4894 23.7258 14.3512C22.6906 13.9624 21.6239 13.6576 20.5624 13.3686C20.6885 13.0165 20.946 12.3123 21.0773 11.9602C22.039 11.9708 23.0006 12.0601 23.9623 12.202C23.1005 10.4206 24.0411 8.36061 25.9487 7.85088C25.213 7.2413 24.2145 6.82091 23.8992 5.84875C23.3632 4.93439 23.7994 3.86238 23.7994 2.87971C23.2844 3.12669 22.7747 3.38418 22.2755 3.63642C21.5766 3.33163 20.8777 3.0321 20.184 2.73782C20.0947 2.37523 19.916 1.65531 19.8319 1.29797C18.7494 1.51868 18.5917 2.9743 17.504 3.2423C16.6632 3.85187 15.7593 3.24229 14.9396 2.95853C15.0604 4.06206 15.4388 5.2602 14.7557 6.26389C14.3037 7.47253 12.7272 7.30962 11.7183 7.74053C11.7025 7.27284 11.6657 6.33746 11.65 5.86977C12.3279 5.7384 13.0057 5.60176 13.6941 5.47039C13.3578 4.78199 13.0163 4.10411 12.6957 3.42096C13.5838 2.59068 14.4719 1.7604 15.3652 0.930119C15.9275 1.32424 16.495 1.71836 17.0626 2.11248C17.236 1.42408 17.4094 0.735693 17.5723 0.0420405Z" fill="#F1C562"></path><path d="M8.83355 14.099C10.9723 13.295 13.6996 13.8152 15.1237 15.686C17.0891 17.9824 16.7055 21.9026 14.2199 23.6735C11.5083 25.6967 6.86822 24.6667 5.79621 21.293C4.55604 18.5815 6.11149 15.1553 8.83355 14.099ZM9.30651 15.4443C8.03481 16.0013 7.08365 17.2047 6.79463 18.5552C6.36372 20.715 8.05583 22.9956 10.2261 23.2847C12.8483 23.9047 15.5336 21.1774 14.9503 18.571C14.6455 16.0591 11.6082 14.2514 9.30651 15.4443Z" fill="#F1C562"></path><path d="M16.6634 6.1273C17.6198 4.05159 21.1564 3.99905 22.1391 6.08C22.8853 7.34119 22.57 8.95971 21.6976 10.0685C20.6361 10.9513 19.2384 10.8515 17.9509 10.8357C18.7602 11.666 19.5694 12.4963 20.3576 13.3581C19.8164 14.0465 19.2489 14.7191 18.6971 15.397C19.3224 16.5846 20.5416 16.7265 21.7555 16.7581C21.787 18.4239 21.787 20.0949 21.766 21.7608C20.9777 21.8186 20.1895 21.8711 19.4065 21.9289C19.2856 22.2757 19.0492 22.9641 18.9283 23.3057C19.3224 23.9626 20.1422 24.4723 20.1843 25.2868C19.1385 26.4849 17.9456 27.5412 16.8421 28.6868C16.2062 28.2086 15.5809 27.7199 14.9608 27.2311C14.614 27.3468 13.9256 27.578 13.5788 27.6936C13.5315 28.4976 13.4842 29.3069 13.4316 30.1161C11.75 30.1424 10.0685 30.1371 8.3869 30.0951C8.30807 28.96 8.44471 27.4571 7.01011 27.1576C6.28492 27.6095 5.65431 28.1823 4.98693 28.7078C3.76779 27.5412 2.56966 26.3483 1.5029 25.0451C2.31742 24.1885 2.91125 23.2006 2.70105 21.9815C1.81296 21.9132 0.930111 21.8448 0.0525356 21.787C-0.0262885 20.0687 -0.0210195 18.345 0.0998442 16.6319C0.888086 16.6162 1.6816 16.6057 2.48035 16.5951C3.1162 15.2709 2.32795 14.2041 1.45563 13.2477C2.55391 12.0496 3.70473 10.8988 4.91862 9.81102C5.81196 10.5152 6.76837 11.2351 7.98226 11.109C8.14516 10.2262 8.26603 9.33807 8.37638 8.44999C10.0632 8.33438 11.7553 8.37116 13.4474 8.43422C13.5052 9.29077 13.563 10.1473 13.6366 11.0039C14.9188 11.3297 15.8962 10.6098 16.7685 9.74795C16.3744 8.60237 15.9277 7.24134 16.6634 6.1273ZM18.7707 5.98016C18.3503 6.43734 17.5463 6.84197 17.6461 7.5619C17.52 9.18568 19.9688 10.2367 20.8411 8.68646C21.8711 7.35696 20.2894 5.53349 18.7707 5.98016ZM9.79522 9.75321C9.74267 10.3943 9.70589 11.0407 9.66911 11.6818C8.60235 12.1179 7.5461 12.5751 6.50562 13.0638C5.99589 12.6224 5.49667 12.181 4.99745 11.7448C4.47196 12.2861 3.94121 12.8221 3.41571 13.3581C3.83611 13.8468 4.26175 14.3355 4.6874 14.8347C4.2092 15.8857 3.75729 16.9472 3.32639 18.0192C2.68003 18.056 2.03893 18.0928 1.39783 18.1348C1.40309 18.8968 1.40832 19.664 1.40832 20.426C2.04942 20.4418 2.69578 20.4575 3.34213 20.4733C3.74151 21.4139 4.18295 22.3388 4.51401 23.3057C4.58758 24.0729 3.79933 24.5669 3.45776 25.187C3.978 25.6547 4.49296 26.1276 5.0132 26.6111C5.52293 26.2327 6.03269 25.8491 6.55293 25.4707C7.48831 25.8859 8.4552 26.238 9.39584 26.6689C9.64282 27.2837 9.78997 27.9301 9.83727 28.6079C10.5257 28.6657 11.2193 28.7236 11.9182 28.7814C12.0601 28.0509 12.1967 27.3205 12.3596 26.5953C13.3213 26.28 14.2356 25.7545 15.2499 25.6179C15.8226 25.8806 16.3639 26.2117 16.9209 26.5165C17.3413 26.1013 17.767 25.6915 18.1979 25.2816C17.8931 24.6194 17.2993 24.0467 17.2783 23.2847C17.6041 22.3493 17.9982 21.4455 18.3608 20.5206C19.0281 20.4628 19.7008 20.405 20.3734 20.3472C20.3524 19.5957 20.3314 18.8495 20.3156 18.1086C19.6377 18.0508 18.9651 17.993 18.2925 17.9246C17.9509 16.8789 17.562 15.8542 17.1206 14.8505C17.4937 14.3303 17.8721 13.81 18.2557 13.295C17.7407 12.8063 17.231 12.3176 16.7318 11.8237C16.1379 12.139 15.7018 12.964 14.9608 12.8536C14.0044 12.5278 13.0901 12.0969 12.1652 11.6975C12.1284 11.0459 12.0916 10.3943 12.0601 9.7427C11.2981 9.74795 10.5414 9.75321 9.79522 9.75321Z" fill="#F1C562"></path><path d="M28.4029 8.03484C31.619 7.13624 35.2817 6.60024 38.3611 8.22402C40.8992 9.60607 42.0553 12.5856 41.987 15.3655C42.1814 20.3682 40.1635 25.0609 37.9144 29.4014C36.1645 32.7278 36.2591 36.627 34.856 40.0637C34.2149 42.0816 31.0882 42.6439 29.8586 40.8835C27.6673 38.1509 28.2453 34.2307 26.2589 31.4036C25.7492 31.2774 25.4024 31.4666 25.2132 31.9606C23.6945 34.751 23.889 38.2297 22.0129 40.8572C21.004 42.2918 18.7707 42.2025 17.5568 41.0884C16.4059 39.6223 16.18 37.7042 15.8069 35.9386C15.4653 33.9259 14.7979 31.9869 14.4248 29.9795C14.7716 30.0583 15.4705 30.2054 15.8173 30.2843C17.1416 33.5896 16.9051 37.3837 18.7917 40.4788C19.5379 40.379 20.531 40.6575 20.962 39.8325C22.7381 37.163 22.4754 33.6737 24.1307 30.9464C24.798 29.7062 26.6163 29.5381 27.4833 30.6626C29.3593 33.4215 28.96 37.1315 30.899 39.8588C31.6663 41.1935 33.5318 40.2897 33.7945 39.018C34.8613 35.6338 35.0557 31.9816 36.6585 28.7603C38.7289 24.5774 40.8677 20.1527 40.5997 15.3497C40.7626 12.6697 39.2492 9.85305 36.6269 8.96497C34.01 8.2608 31.2143 8.60237 28.6815 9.46418C28.6132 9.10685 28.4713 8.39218 28.4029 8.03484Z" fill="#F1C562"></path></svg>