<svg xmlns="http://www.w3.org/2000/svg" width="47" height="46" viewBox="0 0 47 46" fill="none"><path d="M26.0059 0.0324569C26.574 -0.0221868 27.146 0.0101243 27.7156 0.00394717C28.0843 -0.00983255 28.4486 0.0524138 28.8158 0.067619C29.453 0.151723 30.096 0.222522 30.7175 0.393105C31.3448 0.530427 31.9506 0.743775 32.5488 0.973754C32.6802 1.04931 32.8326 1.09017 32.9817 1.0398C33.4894 0.899154 33.999 0.766108 34.511 0.642091C35.1153 0.535654 35.725 0.460103 36.3389 0.433969C37.3866 0.42114 38.4392 0.615957 39.3988 1.0398C39.8589 1.29496 40.3328 1.54252 40.7219 1.90175C41.3034 2.37786 41.7578 2.98939 42.1169 3.64417C42.7379 4.81925 43.0299 6.14067 43.1185 7.45878C43.258 9.49912 42.9684 11.5461 42.4646 13.5219C42.325 13.9628 42.1793 14.4023 42.0497 14.8471C41.9702 15.0847 41.9773 15.3374 41.9854 15.5845C41.3858 15.6031 40.7857 15.5921 40.1856 15.5955C40.2166 15.3698 40.2971 15.1559 40.3485 14.935C40.6795 13.6102 40.9353 12.2665 41.0767 10.9089C41.1663 10.3202 41.1415 9.72293 41.1925 9.13087C41.1739 7.83225 41.0724 6.5037 40.5771 5.28728C40.449 4.92901 40.2542 4.59972 40.0594 4.27423C39.7046 3.75678 39.2479 3.3106 38.723 2.96564C37.8472 2.41872 36.7942 2.20205 35.7697 2.23911C35.0191 2.2144 34.2728 2.32987 33.5427 2.49475C31.7691 2.88819 30.0812 3.5824 28.4334 4.33363C27.1198 4.97557 25.7477 5.51441 24.3185 5.83514C24.3166 5.857 24.3132 5.90024 24.3118 5.9221C24.9243 6.144 25.5586 6.30033 26.1845 6.48232C27.0541 6.69709 27.9247 6.91281 28.812 7.04253C29.1492 7.07912 29.4778 7.1713 29.8169 7.18746C30.2913 7.22452 30.7642 7.29579 31.2414 7.27584C31.7644 7.26348 32.2911 7.30862 32.8117 7.2345C33.3937 7.18176 33.9675 7.04681 34.5143 6.84106C34.0047 7.28154 33.3565 7.51675 32.7212 7.71299C32.0839 7.8869 31.4257 7.97718 30.7671 8.00949C30.4027 8.05748 30.035 8.03705 29.6707 8.00521C28.0009 7.93156 26.3607 7.55904 24.7657 7.07817C23.6236 6.70564 22.4439 6.42957 21.2442 6.33121C20.9241 6.32979 20.6084 6.26184 20.2883 6.27942C19.7178 6.2913 19.1448 6.24663 18.5762 6.31078C17.3984 6.37683 16.2334 6.59255 15.0937 6.89143C14.1645 7.13519 13.2544 7.4507 12.3766 7.83986C12.1128 7.94202 11.8709 8.13256 11.5746 8.1164C10.8588 8.11117 10.1425 8.13398 9.42715 8.11308C10.4611 7.40936 11.597 6.8691 12.76 6.41342C14.1264 5.89692 15.549 5.52154 17.0007 5.3424C17.6655 5.27065 18.3323 5.18417 19.0024 5.19035C20.1197 5.16136 21.2342 5.28348 22.3358 5.46214C22.5949 5.50966 22.8497 5.42223 23.0992 5.36331C24.0003 5.1186 24.8876 4.81972 25.7439 4.44719C26.735 4.05994 27.6423 3.49877 28.5791 3.00222C28.8263 2.84304 29.104 2.73993 29.3592 2.59501C29.9355 2.28663 30.5323 2.01816 31.1262 1.74542C31.1233 1.72261 31.1176 1.67747 31.1147 1.65466C29.6336 1.27168 28.1133 0.974229 26.5769 1.00559C24.7842 0.966152 23.0035 1.30874 21.2913 1.81764C20.9784 1.9179 20.6617 2.00676 20.3564 2.12792C19.8068 2.30611 19.2705 2.52278 18.7343 2.73708C18.629 2.777 18.529 2.82927 18.4399 2.89721C17.7637 2.74136 17.0978 2.54227 16.4192 2.39544C15.5328 2.19065 14.6232 2.13125 13.7188 2.0614C11.8242 1.99393 9.91151 2.0443 8.04932 2.43155C7.53638 2.56412 7.01392 2.67009 6.52194 2.87203C6.06759 3.05639 5.60704 3.24456 5.20889 3.53583C4.5626 4.00909 4.01918 4.61208 3.56197 5.2659C2.77661 6.37208 2.34321 7.69446 2.17176 9.03109C2.1108 9.71105 2.05841 10.3958 2.12842 11.0771C2.19795 12.5506 2.55896 13.9932 3.01046 15.3916C3.40242 16.5049 3.85249 17.6026 4.43401 18.6318C6.51575 22.2891 8.59226 25.9474 10.6692 29.6075C11.1698 30.5027 11.6937 31.3842 12.1852 32.2841C12.3938 32.6191 12.5686 32.9736 12.7777 33.3086C13.0334 33.1451 13.1868 32.8752 13.3535 32.6315C13.8654 31.7543 14.0407 30.7356 14.1764 29.7434C14.2888 28.6729 14.3298 27.5971 14.4084 26.5242C14.4832 25.2945 14.6189 24.06 14.9608 22.8726C15.1156 22.4093 15.2714 21.9432 15.5195 21.5198C15.7743 20.9933 16.161 20.5462 16.5654 20.129C17.0674 20.2321 17.556 20.4706 17.8956 20.8603C17.4798 21.4585 17.1631 22.1256 16.9769 22.8298C16.5406 24.4002 16.5668 26.0452 16.5754 27.6603C16.5639 28.2315 16.6359 28.8007 16.6235 29.3719C16.6249 29.8793 16.6159 30.3873 16.6473 30.8938C16.6035 31.4165 16.6435 31.942 16.6116 32.4652C16.5806 32.7004 16.573 32.937 16.5649 33.1741C16.4639 34.0546 16.3558 34.9389 16.1139 35.7937C15.871 36.686 15.5071 37.5466 15.0228 38.3353C14.8261 38.648 14.5951 38.9369 14.3708 39.2296C11.396 33.9923 8.43033 28.7499 5.45607 23.5126C4.92742 22.6079 4.43591 21.6823 3.9025 20.78C3.40861 19.8795 2.88568 18.9948 2.39513 18.0924C2.20557 17.6686 1.98173 17.26 1.8098 16.828C1.77265 16.7373 1.72741 16.6508 1.68073 16.5653C1.63787 16.4251 1.585 16.2878 1.52642 16.1533C1.31687 15.6653 1.16161 15.1569 0.969671 14.6622C0.571039 13.3513 0.210032 12.018 0.0909662 10.6485C0.0395298 10.1924 0.00904899 9.73338 0 9.27437C0.0295283 8.39532 0.0900137 7.50724 0.326716 6.65623C0.721538 5.11622 1.59786 3.69216 2.84472 2.69479C3.45719 2.17592 4.16635 1.78296 4.91027 1.48455C5.36224 1.28546 5.84327 1.1662 6.31429 1.02127C7.24634 0.809348 8.19458 0.663948 9.14901 0.605028C9.47906 0.557037 9.8134 0.580795 10.1458 0.571767C10.6692 0.543732 11.1927 0.586022 11.7165 0.577944C12.1438 0.632112 12.5762 0.615007 13.0015 0.686281C14.687 0.863041 16.3811 1.13769 17.9694 1.74732C18.1237 1.78628 18.269 1.95354 18.4347 1.86563C19.7178 1.29734 21.0646 0.881573 22.4301 0.562739C23.6045 0.287144 24.8014 0.103731 26.0059 0.0324569Z" fill="#BF9657"></path><path d="M16.0829 18.4917C18.1366 18.4917 20.1902 18.4917 22.2439 18.4912C22.5987 18.4945 22.9578 18.4812 23.3064 18.561C24.1603 18.6817 25.0038 18.9065 25.7792 19.2885C26.3312 19.585 26.8617 19.9352 27.287 20.399C28.0033 21.1454 28.4448 22.1034 28.7482 23.0803C28.8677 23.5569 28.9792 24.0349 29.0463 24.5224C29.2049 25.3544 29.2416 26.2026 29.3283 27.0436C29.3745 27.8875 29.4807 28.7262 29.5812 29.5653C29.6012 29.7906 29.6712 30.0068 29.705 30.2306C29.766 30.6425 29.9041 31.0379 30.0484 31.427C30.2465 31.9449 30.5361 32.4291 30.9218 32.8297C31.069 32.776 31.1109 32.6163 31.1857 32.4961C31.3733 32.1364 31.6019 31.801 31.7839 31.4384C31.9996 31.1087 32.1601 30.7471 32.3773 30.4178C33.0598 29.1852 33.7708 27.9678 34.46 26.7395C35.162 25.5326 35.8312 24.3076 36.5322 23.1007C37.098 22.072 37.7019 21.0647 38.2682 20.0359C38.4992 19.6473 38.7121 19.2481 38.9421 18.8585C39.0307 18.7212 39.0783 18.4688 39.2874 18.4931C41.2101 18.4898 43.1323 18.4926 45.0549 18.4917C45.7012 18.5002 46.3485 18.4741 46.9943 18.5054C46.9929 18.5568 46.9914 18.6085 46.9905 18.6603C46.649 18.7178 46.3151 18.8119 45.9775 18.8875C45.3283 19.0295 44.7144 19.4139 44.3677 19.9884C44.03 20.4436 43.971 21.029 43.9538 21.5774C43.9548 28.3099 43.9538 35.0421 43.9543 41.7746C43.9453 42.236 43.9653 42.7059 44.1072 43.1493C44.2701 43.6558 44.6296 44.0839 45.0697 44.378C45.6527 44.7453 46.3542 44.8057 46.9995 45.0091C46.9995 45.0428 46.9995 45.1103 47 45.144C44.2877 45.1602 41.5754 45.1464 38.8631 45.1511C38.2768 45.1445 37.6895 45.1644 37.1037 45.1397C37.1099 45.0898 37.1161 45.0409 37.1237 44.9924C37.5729 44.8865 38.0258 44.7929 38.4687 44.6617C39.4493 44.3543 40.1794 43.3721 40.1666 42.3425C40.1694 36.2138 40.1671 30.0847 40.1675 23.9556C40.1713 22.6308 40.1599 21.3056 40.1737 19.9808C40.1633 19.9485 40.1532 19.9167 40.1437 19.8853C39.9661 20.0616 39.8861 20.3049 39.7484 20.5092C38.2349 23.1825 36.7108 25.8505 35.2011 28.5266C33.1803 32.0927 31.1519 35.6545 29.1349 39.223C28.8858 38.9697 28.7044 38.6642 28.502 38.3753C27.5532 36.8776 27.1232 35.1147 26.9598 33.3666C26.9322 32.9865 26.9093 32.6064 26.8746 32.2272C26.8546 31.5928 26.8627 30.9576 26.8612 30.3227C26.8622 29.8005 26.8555 29.2774 26.8984 28.7571C26.9203 27.9797 26.9108 27.2023 26.9284 26.425C26.9189 26.156 26.8979 25.8876 26.9122 25.6191C26.8374 24.2354 26.6988 22.7995 26.0316 21.5569C25.5386 20.5852 24.6985 19.806 23.7136 19.3436C23.444 19.2229 23.1769 19.0856 22.8835 19.0319C22.894 26.7395 22.883 34.4471 22.8892 42.1543C22.8873 42.5192 22.9197 42.8922 23.0683 43.2301C23.3607 43.9898 24.0599 44.5776 24.8619 44.7311C25.2319 44.8485 25.6206 44.8983 25.9859 45.0304C25.9687 45.0623 25.9344 45.1255 25.9173 45.1568C22.6749 45.1435 19.432 45.1549 16.1896 45.1511C16.0777 45.172 16.0801 45.0566 16.0805 44.982C16.2863 44.9487 16.4887 44.8974 16.6878 44.8361C17.1317 44.6831 17.6279 44.647 18.0118 44.3524C18.6938 43.9304 19.0853 43.1345 19.0962 42.3453C19.0962 35.3433 19.0962 28.3418 19.0962 21.3398C19.0881 20.7653 18.89 20.1837 18.5157 19.7437C18.2194 19.3631 17.777 19.1084 17.3131 18.9901C16.903 18.8742 16.4873 18.7787 16.0796 18.6546C16.0805 18.6138 16.082 18.5325 16.0829 18.4917Z" fill="#BF9657"></path><path d="M2.9866 39.0662C3.84863 39.0481 4.71115 39.0643 5.57318 39.0571C6.07373 39.0595 6.57286 39.184 7.00769 39.4325C7.16866 39.5608 7.34059 39.6767 7.49252 39.8164C8.03451 40.3614 8.29931 41.1193 8.3798 41.8706C8.41266 42.5482 8.39599 43.25 8.11881 43.8819C8.02213 44.082 7.92973 44.2877 7.79638 44.4669C7.5111 44.819 7.11675 45.1017 6.66382 45.1829C6.24995 45.2523 5.80798 45.2314 5.42459 45.048C5.67748 45.0803 5.93133 45.1677 6.18804 45.1164C6.60715 45.0608 6.92672 44.732 7.1439 44.3923C7.52919 43.6819 7.59873 42.8489 7.55634 42.0554C7.50395 41.3707 7.32869 40.666 6.9091 40.1091C6.68097 39.8435 6.43427 39.5755 6.11136 39.4254C5.63462 39.1721 5.08644 39.097 4.55303 39.1004C4.53588 39.2467 4.5254 39.3945 4.52779 39.5423C4.53445 41.4054 4.52159 43.2685 4.53445 45.1311C3.9777 45.1729 3.41809 45.1392 2.86039 45.1511L2.85706 45.1178C3.13615 45.0879 3.45762 45.0242 3.62241 44.7714C3.72004 44.6484 3.70957 44.4863 3.71242 44.339C3.71147 42.8347 3.71195 41.3308 3.71195 39.8264C3.70909 39.6801 3.70861 39.5233 3.62908 39.395C3.47429 39.1964 3.22044 39.1237 2.9866 39.0662Z" fill="#BF9657"></path><path d="M11.4475 41.1288C11.6737 40.885 11.9947 40.6793 12.341 40.7282C12.5 40.7396 12.6115 40.867 12.7329 40.9544C12.7858 41.0756 12.9092 41.1986 12.8882 41.3331C12.6505 41.5654 12.4205 41.8068 12.189 42.0463C12.1562 41.8021 12.1195 41.5441 11.959 41.3464C11.8514 41.1848 11.6013 41.1478 11.4504 41.2689C11.2508 41.3763 11.1551 41.5921 10.9974 41.7451C11.1065 41.5122 11.2618 41.3055 11.4475 41.1288Z" fill="#BF9657"></path><path d="M9.16521 41.2382C9.63766 41.0947 10.1025 40.926 10.5811 40.803C10.5749 41.2862 10.5802 41.769 10.5764 42.2522C10.5745 42.4071 10.5802 42.563 10.613 42.7155C10.6826 42.6043 10.7231 42.4803 10.7583 42.3558C10.6488 42.917 10.5654 43.4857 10.5778 44.0593C10.5854 44.3206 10.5354 44.6105 10.6916 44.8409C10.8007 45.0267 11.0303 45.059 11.2089 45.1474C10.5187 45.1488 9.82817 45.1597 9.13806 45.1407C9.37429 45.069 9.60432 44.9531 9.72053 44.724C9.7272 43.7414 9.72387 42.7583 9.72244 41.7756C9.71386 41.4787 9.41144 41.3238 9.16521 41.2382Z" fill="#BF9657"></path><path d="M4.9169 42.9283C5.06502 42.6626 5.33506 42.3794 5.67035 42.4455C5.82942 42.5049 5.91705 42.6688 5.98373 42.8156C5.75608 42.8137 5.51271 42.8109 5.31649 42.9449C4.91881 43.1582 4.71544 43.6401 4.77974 44.0772C4.79831 44.1931 4.82117 44.3086 4.83499 44.426C4.66353 43.9437 4.65829 43.3806 4.9169 42.9283Z" fill="#BF9657"></path><path d="M13.564 43.9837C13.6864 43.9509 13.8145 43.9642 13.9398 43.9637C14.0722 44.0554 14.2351 44.1238 14.3127 44.2745C14.4689 44.5415 14.3851 44.9093 14.1393 45.0951C13.985 45.231 13.7617 45.2291 13.5707 45.191C13.3625 45.134 13.2354 44.9392 13.1582 44.751C13.1301 44.6275 13.153 44.4997 13.1616 44.3757C13.2797 44.2312 13.3902 44.0659 13.564 43.9837Z" fill="#BF9657"></path></svg>